HIERARCHY
ROOT Hips
{
  OFFSET 5.80788e-005 67.184 3.4734
  CHANNELS 6 Xposition Yposition Zposition Zrotation Xrotation Yrotation
  JOINT Chest
  {
    OFFSET 0 8.7983 -4.7612
    CHANNELS 3 Zrotation Xrotation Yrotation
    JOINT Chest2
    {
      OFFSET 0 8.0291 0.4195
      CHANNELS 3 Zrotation Xrotation Yrotation
      JOINT Chest3
      {
        OFFSET 0 9.9351 -2.2114
        CHANNELS 3 Zrotation Xrotation Yrotation
        JOINT Neck
        {
          OFFSET 0 22.3885 -0.4656
          CHANNELS 3 Zrotation Xrotation Yrotation
          JOINT Head
          {
            OFFSET -0.0001 12.643 3.4389
            CHANNELS 3 Zrotation Xrotation Yrotation
            End Site
            {
              OFFSET 0.0001 17.6655 0.5274
            }
          }
        }
        JOINT LeftCollar
        {
          OFFSET 2.2603 21.606 7.4023
          CHANNELS 3 Zrotation Xrotation Yrotation
          JOINT LeftShoulder
          {
            OFFSET 13.5163 -1.1332 -5.0146
            CHANNELS 3 Zrotation Xrotation Yrotation
            JOINT LeftElbow
            {
              OFFSET -0.0995 -28.05 -0.2431
              CHANNELS 3 Zrotation Xrotation Yrotation
              JOINT LeftWrist
              {
                OFFSET 0.0679 -23.3996 -0.1402
                CHANNELS 3 Zrotation Xrotation Yrotation
                JOINT LeftFinger1
                {
                  OFFSET 0.7932 -9.069 2.5189
                  CHANNELS 3 Zrotation Xrotation Yrotation
                  JOINT LeftFinger11
                  {
                    OFFSET -0.8272 -3.3923 0.5977
                    CHANNELS 3 Zrotation Xrotation Yrotation
                    JOINT LeftFinger12
                    {
                      OFFSET -0.5649 -2.3158 0.4082
                      CHANNELS 3 Zrotation Xrotation Yrotation
                      End Site
                      {
                        OFFSET -0.4919 -1.6479 0.2673
                      }
                    }
                  }
                }
                JOINT LeftFinger2
                {
                  OFFSET 0.9159 -9.2044 0.2193
                  CHANNELS 3 Zrotation Xrotation Yrotation
                  JOINT LeftFinger21
                  {
                    OFFSET 0.0117 -4.1944 -0.0248
                    CHANNELS 3 Zrotation Xrotation Yrotation
                    JOINT LeftFinger22
                    {
                      OFFSET 0.0071 -2.3249 -0.0142
                      CHANNELS 3 Zrotation Xrotation Yrotation
                      End Site
                      {
                        OFFSET -0.1475 -2.0882 0.0028
                      }
                    }
                  }
                }
                JOINT LeftFinger3
                {
                  OFFSET 0.6113 -8.7231 -2.0637
                  CHANNELS 3 Zrotation Xrotation Yrotation
                  JOINT LeftFinger31
                  {
                    OFFSET -0.1927 -3.8059 -0.2383
                    CHANNELS 3 Zrotation Xrotation Yrotation
                    JOINT LeftFinger32
                    {
                      OFFSET -0.1091 -2.1688 -0.1362
                      CHANNELS 3 Zrotation Xrotation Yrotation
                      End Site
                      {
                        OFFSET -0.2358 -1.9176 -0.0906
                      }
                    }
                  }
                }
                JOINT LeftFinger4
                {
                  OFFSET -0.6151 -8.0947 -3.5641
                  CHANNELS 3 Zrotation Xrotation Yrotation
                  JOINT LeftFinger41
                  {
                    OFFSET -0.4882 -2.341 -0.6462
                    CHANNELS 3 Zrotation Xrotation Yrotation
                    JOINT LeftFinger42
                    {
                      OFFSET -0.3575 -1.7167 -0.4742
                      CHANNELS 3 Zrotation Xrotation Yrotation
                      End Site
                      {
                        OFFSET -0.4187 -1.5237 -0.3496
                      }
                    }
                  }
                }
                JOINT LeftFinger0
                {
                  OFFSET -1.42 -1.8761 1.4223
                  CHANNELS 3 Zrotation Xrotation Yrotation
                  JOINT LeftFinger01
                  {
                    OFFSET -1.1471 -3.4929 2.6334
                    CHANNELS 3 Zrotation Xrotation Yrotation
                    JOINT LeftFinger02
                    {
                      OFFSET -0.823 -2.3 1.6571
                      CHANNELS 3 Zrotation Xrotation Yrotation
                      End Site
                      {
                        OFFSET -0.5822 -1.6914 1.1582
                      }
                    }
                  }
                }
              }
            }
          }
        }
        JOINT RightCollar
        {
          OFFSET -2.2603 21.606 7.4023
          CHANNELS 3 Zrotation Xrotation Yrotation
          JOINT RightShoulder
          {
            OFFSET -13.5187 -1.1334 -5.0155
            CHANNELS 3 Zrotation Xrotation Yrotation
            JOINT RightElbow
            {
              OFFSET 0.0994 -28.0499 -0.2431
              CHANNELS 3 Zrotation Xrotation Yrotation
              JOINT RightWrist
              {
                OFFSET -0.0679 -23.3996 -0.1402
                CHANNELS 3 Zrotation Xrotation Yrotation
                JOINT RightFinger1
                {
                  OFFSET -0.7932 -9.0691 2.5189
                  CHANNELS 3 Zrotation Xrotation Yrotation
                  JOINT RightFinger11
                  {
                    OFFSET 0.8272 -3.3923 0.5977
                    CHANNELS 3 Zrotation Xrotation Yrotation
                    JOINT RightFinger12
                    {
                      OFFSET 0.565 -2.3158 0.4082
                      CHANNELS 3 Zrotation Xrotation Yrotation
                      End Site
                      {
                        OFFSET 0.4919 -1.6479 0.2673
                      }
                    }
                  }
                }
                JOINT RightFinger2
                {
                  OFFSET -0.916 -9.2044 0.2193
                  CHANNELS 3 Zrotation Xrotation Yrotation
                  JOINT RightFinger21
                  {
                    OFFSET -0.0117 -4.1944 -0.0248
                    CHANNELS 3 Zrotation Xrotation Yrotation
                    JOINT RightFinger22
                    {
                      OFFSET -0.0071 -2.3249 -0.0142
                      CHANNELS 3 Zrotation Xrotation Yrotation
                      End Site
                      {
                        OFFSET 0.1475 -2.0882 0.0028
                      }
                    }
                  }
                }
                JOINT RightFinger3
                {
                  OFFSET -0.6113 -8.7231 -2.0637
                  CHANNELS 3 Zrotation Xrotation Yrotation
                  JOINT RightFinger31
                  {
                    OFFSET 0.1927 -3.8059 -0.2383
                    CHANNELS 3 Zrotation Xrotation Yrotation
                    JOINT RightFinger32
                    {
                      OFFSET 0.1091 -2.1688 -0.1362
                      CHANNELS 3 Zrotation Xrotation Yrotation
                      End Site
                      {
                        OFFSET 0.2358 -1.9176 -0.0906
                      }
                    }
                  }
                }
                JOINT RightFinger4
                {
                  OFFSET 0.6151 -8.0947 -3.564
                  CHANNELS 3 Zrotation Xrotation Yrotation
                  JOINT RightFinger41
                  {
                    OFFSET 0.4882 -2.341 -0.6462
                    CHANNELS 3 Zrotation Xrotation Yrotation
                    JOINT RightFinger42
                    {
                      OFFSET 0.3574 -1.7166 -0.4742
                      CHANNELS 3 Zrotation Xrotation Yrotation
                      End Site
                      {
                        OFFSET 0.4187 -1.5237 -0.3496
                      }
                    }
                  }
                }
                JOINT RightFinger0
                {
                  OFFSET 1.4199 -1.8761 1.4221
                  CHANNELS 3 Zrotation Xrotation Yrotation
                  JOINT RightFinger01
                  {
                    OFFSET 1.1472 -3.4929 2.6336
                    CHANNELS 3 Zrotation Xrotation Yrotation
                    JOINT RightFinger02
                    {
                      OFFSET 0.8229 -2.3 1.6571
                      CHANNELS 3 Zrotation Xrotation Yrotation
                      End Site
                      {
                        OFFSET 0.5822 -1.6914 1.1582
                      }
                    }
                  }
                }
              }
            }
          }
        }
      }
    }
  }
  JOINT RightHip
  {
    OFFSET -9.412 3.9771 -0.7758
    CHANNELS 3 Zrotation Xrotation Yrotation
    JOINT RightKnee
    {
      OFFSET -0.7531 -40.938 0
      CHANNELS 3 Zrotation Xrotation Yrotation
      JOINT RightAnkle
      {
        OFFSET 0 -40.1986 0
        CHANNELS 3 Zrotation Xrotation Yrotation
        JOINT RightToe
        {
          OFFSET 0 -4.4182 9.239
          CHANNELS 3 Zrotation Xrotation Yrotation
          End Site
          {
            OFFSET 0 0 6.1981
          }
        }
      }
    }
  }
  JOINT LeftHip
  {
    OFFSET 9.4119 3.9773 -0.7758
    CHANNELS 3 Zrotation Xrotation Yrotation
    JOINT LeftKnee
    {
      OFFSET 0.7532 -40.9383 0
      CHANNELS 3 Zrotation Xrotation Yrotation
      JOINT LeftAnkle
      {
        OFFSET 0 -40.1986 0
        CHANNELS 3 Zrotation Xrotation Yrotation
        JOINT LeftToe
        {
          OFFSET 0 -4.4182 9.239
          CHANNELS 3 Zrotation Xrotation Yrotation
          End Site
          {
            OFFSET 0 0 6.1981
          }
        }
      }
    }
  }
}
MOTION
Frames:	5
Frame Time:	0.0333333
5.80788e-005 -19.5443 3.4734 0 0 -0 0 0 -0 0 0 -0 0 0 -0 0 0 -0 0 0 -0 0 0 -12.5014 88.1196 14.2451 10.6914 -0.00160068 -0.00239207 0.000740045 -8.4365e-005 7.00714e-005 -9.52055e-007 9.93923e-017 -1.98785e-016 -1.59028e-015 9.93923e-017 -5.96354e-016 -1.59028e-015 -9.93923e-017 -5.96354e-016 -1.59028e-015 9.93923e-017 -1.98785e-016 -1.59028e-015 -0.0128176 0.00232552 8.52707e-005 9.93923e-017 5.96354e-016 -0 9.93923e-017 -1.98785e-016 -1.59028e-015 -0.0160551 0.00299681 0.000857156 -2.48481e-016 0 3.18055e-015 9.93923e-017 -1.98785e-016 -1.59028e-015 -0.0125865 0.0031206 0.00282719 0 1.98785e-016 -0 9.93923e-017 -1.98785e-016 -1.59028e-015 9.93923e-017 -5.96354e-016 -1.59028e-015 -9.93923e-017 -5.96354e-016 -1.59028e-015 -0.865644 0.16582 7.03859 -88.0329 10.2057 -10.5567 0.0015593 -0.00248883 -0.000788628 7.87605e-005 4.10553e-005 1.24965e-005 -3.97569e-016 -7.95139e-016 3.18055e-015 -1.98785e-016 -3.97569e-016 3.18055e-015 -1.98785e-016 0 3.18055e-015 -3.97569e-016 -7.95139e-016 3.18055e-015 0.0129473 0.00231697 -8.70038e-005 9.93923e-017 -7.95139e-016 1.59028e-015 -3.97569e-016 -7.95139e-016 3.18055e-015 0.0163314 0.00303369 -0.000872333 3.97569e-016 7.95139e-016 -3.18055e-015 -3.97569e-016 -7.95139e-016 3.18055e-015 0.0145763 0.00367772 -0.00326275 9.93923e-017 -3.97569e-016 -0 -3.97569e-016 -7.95139e-016 3.18055e-015 -1.98785e-016 -3.97569e-016 3.18055e-015 -1.98785e-016 0 3.18055e-015 3.4248 1.369 -0.0640251 0.000190474 0.692919 0.00145812 -3.42573 -2.06197 -0.0607404 -3.36159e-023 -4.7394e-023 7.40531e-025 -3.425 1.38128 0.0641622 -6.96856e-005 0.67204 -0.00171278 3.42579 -2.05339 0.0603494 1.04539e-024 1.18485e-023 -0 
0.00574257 -19.892 0.71248 1.15054e-007 15.997 1.73889e-008 -0.255166 6.46461 -0.171628 -0.495478 12.9299 -0.317124 -0.49548 12.93 -0.317124 1.62644e-006 6.99679 8.47438e-007 -1.0816e-006 17.9984 1.10277e-008 2.97586 -2.57709 -8.96446 9.26032 5.18806 24.6272 -22.1525 3.95032 -4.8521 -5.44698 -28.2955 -4.13168 0 9.54166e-015 -0 0 9.54166e-015 -0 3.18055e-015 9.54166e-015 1.59028e-015 0 9.54166e-015 -0 -0.0128133 0.00232344 8.19203e-005 1.59028e-015 0 4.77083e-015 0 9.54166e-015 -0 -0.016052 0.00299787 0.000857992 0 0 -1.59028e-015 0 9.54166e-015 -0 -0.0125756 0.00312057 0.00282599 1.59028e-015 -6.36111e-015 -1.59028e-015 0 9.54166e-015 -0 0 9.54166e-015 -0 3.18055e-015 9.54166e-015 1.59028e-015 10.4218 -1.40727 14.867 -22.9017 -23.3006 12.2679 13.5554 -34.9607 8.90413 7.42276 -7.30406 -18.3727 -3.97569e-016 1.59028e-015 6.36111e-015 -3.97569e-016 0 3.18055e-015 2.78299e-015 -9.2559e-007 3.18055e-015 -3.97569e-016 1.59028e-015 6.36111e-015 0.0129649 0.00231877 -8.67377e-005 -1.19271e-015 -8.37793e-007 -3.18055e-015 -3.97569e-016 1.59028e-015 6.36111e-015 0.0163076 0.00302968 -0.000871824 2.48494e-007 -9.25576e-007 1.62412e-006 -3.97569e-016 1.59028e-015 6.36111e-015 0.0145932 0.00368361 -0.00326734 -9.14409e-015 -4.63311e-008 6.36111e-015 -3.97569e-016 1.59028e-015 6.36111e-015 -3.97569e-016 0 3.18055e-015 2.78299e-015 -9.2559e-007 3.18055e-015 1.68024 -11.8967 -14.2079 -134.732 81.209 132.978 11.0813 25.0757 -13.8808 1.14498e-006 -1.09651e-005 -1.39293e-007 -1.49984 -13.2925 14.0388 113.559 82.4459 -112.326 -27.2273 52.3661 47.711 -2.15641e-006 -8.5818e-007 -9.74054e-007 
0.00578164 -19.9115 0.455146 -1.436e-007 16.7732 9.16618e-008 -0.255059 5.89673 -0.172983 -0.496084 11.7942 -0.321991 -0.496085 11.7942 -0.321992 -5.13183e-007 6.60833 -9.37374e-007 -6.26104e-008 17.0019 2.77164e-008 3.29313 -0.637572 -8.73306 9.26033 5.18806 24.6272 -22.5516 4.01565 -4.97766 -5.32571 -28.2364 -4.60783 1.59028e-015 0 3.18055e-015 -0 0 3.18055e-015 -1.59028e-015 0 1.59028e-015 1.59028e-015 0 3.18055e-015 -0.0128285 0.00233097 8.43764e-005 -7.95139e-016 -3.18055e-015 -1.59028e-015 1.59028e-015 0 3.18055e-015 -0.0160439 0.00300076 0.000854418 1.59028e-015 -3.18055e-015 -1.59028e-015 1.59028e-015 0 3.18055e-015 -0.0126231 0.00313887 0.00283533 7.95139e-016 -6.36111e-015 -1.59028e-015 1.59028e-015 0 3.18055e-015 -0 0 3.18055e-015 -1.59028e-015 0 1.59028e-015 9.34327 -0.835287 14.7375 -21.0512 -22.222 12.6197 13.5536 -34.961 8.92526 6.44455 -6.21208 -19.8529 2.39343e-007 7.89184e-007 1.63834e-006 -5.7001e-006 2.42932e-006 -4.85228e-006 6.56305e-006 -7.32e-007 3.43922e-007 2.39343e-007 7.89184e-007 1.63834e-006 0.0129843 0.00232841 -9.1165e-005 4.77083e-015 -1.59028e-015 -6.36111e-015 2.39343e-007 7.89184e-007 1.63834e-006 0.016336 0.00303578 -0.000876928 -1.59028e-015 -1.59028e-015 1.59028e-015 2.39343e-007 7.89184e-007 1.63834e-006 0.0145768 0.00367607 -0.00326076 -6.36111e-015 4.77083e-015 -1.59028e-015 2.39343e-007 7.89184e-007 1.63834e-006 -5.7001e-006 2.42932e-006 -4.85228e-006 6.56305e-006 -7.32e-007 3.43922e-007 1.63969 -13.054 -14.2939 -136.435 80.9076 134.63 11.0869 25.0668 -13.8913 -1.97958e-006 -7.54671e-006 5.07015e-007 -1.47038 -14.3365 14.1141 115.41 82.3004 -114.147 -27.2429 52.3612 47.7281 -7.14868e-007 3.92637e-007 -1.5312e-006 
0.00581606 -19.9295 0.197506 -3.91662e-008 17.5501 3.40173e-008 -0.254735 5.31441 -0.17427 -0.49638 10.6295 -0.326813 -0.496381 10.6296 -0.326814 -2.99217e-007 6.21974 -2.45211e-007 1.32083e-007 16.0042 -1.82433e-007 3.60414 1.31259 -8.51129 9.26032 5.18805 24.6272 -22.9499 4.08068 -5.10667 -5.20382 -28.1781 -5.08384 2.38542e-015 -3.18055e-015 3.18055e-015 -1.13808e-007 -4.53782e-008 1.71906e-006 9.46668e-007 3.18916e-006 -5.16348e-007 2.38542e-015 -3.18055e-015 3.18055e-015 -0.0128172 0.00232441 8.63501e-005 7.95139e-016 9.54166e-015 -1.59028e-015 2.38542e-015 -3.18055e-015 3.18055e-015 -0.0160337 0.00299528 0.000858879 8.33813e-007 1.46009e-006 1.20271e-006 2.38542e-015 -3.18055e-015 3.18055e-015 -0.0125812 0.00312409 0.00283287 -8.34697e-006 1.25149e-006 -4.10735e-007 2.38542e-015 -3.18055e-015 3.18055e-015 -1.13808e-007 -4.53782e-008 1.71906e-006 9.46668e-007 3.18916e-006 -5.16348e-007 8.26414 -0.259965 14.6186 -19.2127 -21.1278 12.9327 13.5523 -34.9612 8.94639 5.49226 -5.08997 -21.3186 1.39149e-015 0 1.59028e-015 1.59028e-015 1.70069e-006 1.59028e-015 1.59028e-015 -1.59028e-015 6.36111e-015 1.39149e-015 0 1.59028e-015 0.0129322 0.00231408 -8.44394e-005 -8.15017e-015 -3.18055e-015 4.77083e-015 1.39149e-015 0 1.59028e-015 0.0163235 0.00304143 -0.000873518 6.44458e-006 -3.72601e-006 5.90602e-008 1.39149e-015 0 1.59028e-015 0.0146031 0.00369321 -0.00326773 1.15163e-007 8.61379e-007 8.25514e-007 1.39149e-015 0 1.59028e-015 1.59028e-015 1.70069e-006 1.59028e-015 1.59028e-015 -1.59028e-015 6.36111e-015 1.59806 -14.0685 -14.3836 -137.41 80.7007 135.583 11.0925 25.0579 -13.9017 2.69012e-006 7.71086e-006 9.67359e-008 -1.43969 -15.4147 14.1898 117.406 82.1333 -116.106 -27.2584 52.3564 47.7453 -3.56935e-007 1.95619e-007 -7.6593e-007 
0.00585324 -19.9461 -0.060402 -6.33066e-008 18.3274 -1.16678e-007 -0.254186 4.71892 -0.175478 -0.496352 9.43859 -0.331561 -0.496353 9.43861 -0.331561 -2.8882e-006 5.83114 -1.99686e-006 1.99356e-007 15.0055 8.92293e-008 3.90929 3.27239 -8.29895 9.26042 5.18804 24.6272 -23.3474 4.1454 -5.23922 -5.08133 -28.1206 -5.5597 7.95139e-016 -3.18055e-015 -0 -0 -6.36111e-015 -0 -8.82781e-032 -3.18055e-015 -1.59028e-015 7.95139e-016 -3.18055e-015 -0 -0.012821 0.00232519 8.31512e-005 1.59028e-015 0 3.18055e-015 7.95139e-016 -3.18055e-015 -0 -0.016078 0.00300013 0.000858457 2.38542e-015 3.18055e-015 -0 7.95139e-016 -3.18055e-015 -0 -0.0125873 0.00312169 0.00282835 -4.92672e-006 -1.34353e-006 -4.11424e-006 7.95139e-016 -3.18055e-015 -0 -0 -6.36111e-015 -0 -8.82781e-032 -3.18055e-015 -1.59028e-015 7.18445 0.318487 14.5105 -17.3852 -20.0197 13.2072 13.5509 -34.9614 8.96758 4.56647 -3.93897 -22.7694 9.53343e-006 -1.17676e-006 2.08692e-006 2.98177e-015 0 -0 3.97569e-016 -3.18055e-015 -0 9.53343e-006 -1.17676e-006 2.08692e-006 0.0129403 0.00231619 -8.65819e-005 -4.17448e-015 -3.18055e-015 3.18055e-015 9.53343e-006 -1.17676e-006 2.08692e-006 0.016301 0.00303032 -0.000870821 1.51835e-006 -4.70835e-007 2.0965e-008 9.53343e-006 -1.17676e-006 2.08692e-006 0.0145549 0.00367176 -0.00325687 -5.96354e-016 -8.69763e-007 -0 9.53343e-006 -1.17676e-006 2.08692e-006 2.98177e-015 0 -0 3.97569e-016 -3.18055e-015 -0 1.55492 -15.0493 -14.4752 -138.197 80.516 136.355 11.098 25.0489 -13.9121 -4.92783e-007 -2.06686e-006 6.67123e-007 -1.40778 -16.5383 14.2656 119.596 81.9367 -118.25 -27.2739 52.3515 47.7624 7.12891e-007 1.50349e-006 1.53251e-006 
